<svg width="500" height="183" viewBox="0 0 500 183" fill="none" xmlns="http://www.w3.org/2000/svg">
<path d="M34.1624 57.2441C29.8104 55.7605 25.854 54.2769 22.2933 52.7932C18.7325 51.2107 15.6663 49.3314 13.0946 47.1553C10.523 44.9793 8.49534 42.4077 7.01169 39.4404C5.62695 36.3742 4.93459 32.6651 4.93459 28.313C4.93459 19.9057 8.14915 13.1798 14.5783 8.13545C21.1063 3.09105 30.206 0.568848 41.8774 0.568848C46.1305 0.568848 50.0869 0.865576 53.7466 1.45903C57.4062 2.0525 60.5219 2.99214 63.0935 4.27796C65.7641 5.46488 67.8412 7.04744 69.3249 9.02563C70.8085 10.9049 71.5503 13.1304 71.5503 15.702C71.5503 18.2737 70.9569 20.4992 69.7699 22.3785C68.583 24.1588 67.1488 25.6919 65.4674 26.9778C63.2914 25.593 60.3735 24.4061 56.7139 23.417C53.0542 22.329 49.0483 21.785 44.6963 21.785C40.2454 21.785 36.9814 22.4279 34.9042 23.7137C32.8271 24.9007 31.7886 26.4338 31.7886 28.313C31.7886 29.7967 32.4315 31.0331 33.7173 32.0222C35.0032 32.9123 36.9319 33.7531 39.5036 34.5444L47.3669 37.0666C56.6644 40.0338 63.7859 43.8419 68.7314 48.4906C73.7758 53.0405 76.298 59.2718 76.298 67.1846C76.298 75.5919 72.9845 82.4167 66.3576 87.6589C59.7306 92.8022 49.988 95.3739 37.1297 95.3739C32.5799 95.3739 28.3267 94.9782 24.3704 94.187C20.5129 93.4946 17.1005 92.456 14.1332 91.0713C11.2648 89.5876 8.98989 87.8073 7.30842 85.7302C5.72586 83.5541 4.93459 81.0814 4.93459 78.3119C4.93459 75.4435 5.77532 73.0203 7.45679 71.0421C9.13825 68.965 10.9681 67.3824 12.9463 66.2944C15.7158 68.4704 19.0787 70.3497 23.0351 71.9323C27.0904 73.5148 31.4919 74.3061 36.2395 74.3061C41.0861 74.3061 44.4985 73.5643 46.4767 72.0806C48.4549 70.597 49.444 68.866 49.444 66.8878C49.444 64.9097 48.6527 63.426 47.0701 62.4369C45.4876 61.3489 43.2621 60.3103 40.3937 59.3213L34.1624 57.2441Z" fill="black"/>
<path d="M116.324 92.4066C115.236 92.7033 113.505 93 111.131 93.2968C108.856 93.5935 106.581 93.7419 104.306 93.7419C102.032 93.7419 100.004 93.544 98.2235 93.1484C96.542 92.8517 95.1078 92.2582 93.9209 91.368C92.734 90.4778 91.8438 89.2415 91.2504 87.6589C90.6569 86.0763 90.3602 83.9992 90.3602 81.4276V3.09105C91.4482 2.89323 93.1791 2.64595 95.5529 2.34923C97.9268 1.95359 100.202 1.75577 102.378 1.75577C104.653 1.75577 106.631 1.95359 108.312 2.34923C110.093 2.64595 111.576 3.23941 112.763 4.1296C113.95 5.01979 114.84 6.25616 115.434 7.83872C116.027 9.42127 116.324 11.4984 116.324 14.07V92.4066Z" fill="black"/>
<path d="M217.017 78.3119C217.017 81.3781 216.473 83.6531 215.385 85.1367C214.297 86.6204 212.566 88.0545 210.192 89.4393C208.808 90.2306 207.077 91.0218 205 91.8131C202.923 92.5055 200.648 93.0989 198.175 93.5935C195.702 94.187 193.081 94.632 190.312 94.9288C187.641 95.2255 184.97 95.3739 182.3 95.3739C175.178 95.3739 168.502 94.4342 162.271 92.5549C156.039 90.5767 150.599 87.6589 145.951 83.8014C141.401 79.845 137.791 74.949 135.12 69.1133C132.449 63.2776 131.114 56.5023 131.114 48.7874C131.114 40.6768 132.548 33.6047 135.417 27.5712C138.384 21.5377 142.241 16.5428 146.989 12.5864C151.836 8.53108 157.325 5.51434 163.458 3.53614C169.689 1.55794 176.069 0.568848 182.597 0.568848C191.993 0.568848 199.411 2.10195 204.851 5.16815C210.39 8.13544 213.16 12.0424 213.16 16.889C213.16 19.4606 212.517 21.6861 211.231 23.5654C209.945 25.4447 208.462 26.9283 206.78 28.0163C204.307 26.5327 201.192 25.0985 197.433 23.7137C193.773 22.2301 189.619 21.4883 184.97 21.4883C176.662 21.4883 170.035 23.8621 165.09 28.6098C160.243 33.3574 157.82 39.9349 157.82 48.3423C157.82 52.8921 158.463 56.8485 159.748 60.2114C161.133 63.4755 162.963 66.1955 165.238 68.3715C167.513 70.4486 170.134 72.0312 173.101 73.1192C176.069 74.1083 179.234 74.6028 182.597 74.6028C184.773 74.6028 186.701 74.405 188.383 74.0094C190.064 73.6137 191.35 73.1686 192.24 72.6741V58.7278H176.365C175.772 57.6398 175.178 56.2056 174.585 54.4252C174.09 52.6448 173.843 50.7656 173.843 48.7874C173.843 45.2266 174.634 42.655 176.217 41.0724C177.898 39.4898 180.025 38.6986 182.597 38.6986H207.67C210.638 38.6986 212.912 39.5393 214.495 41.2208C216.176 42.8033 217.017 45.0782 217.017 48.0455V78.3119Z" fill="black"/>
<path d="M315.541 89.8844C314.156 91.2691 312.128 92.3077 309.458 93C306.886 93.7913 303.77 94.187 300.111 94.187C296.451 94.187 292.989 93.6429 289.725 92.5549C286.461 91.4669 283.791 88.8458 281.713 84.6916L267.025 54.7219C265.542 51.6557 264.206 48.7874 263.02 46.1168C261.833 43.3473 260.547 40.1822 259.162 36.6215L258.272 36.7698C258.668 42.111 258.865 47.551 258.865 53.0899C258.964 58.6289 259.014 64.0689 259.014 69.41V92.4066C257.926 92.7033 256.244 93 253.969 93.2968C251.793 93.5935 249.617 93.7419 247.441 93.7419C245.265 93.7419 243.337 93.5935 241.655 93.2968C239.974 93 238.589 92.4066 237.501 91.5164C236.413 90.6262 235.572 89.4393 234.979 87.9556C234.385 86.3731 234.088 84.3454 234.088 81.8727V7.69035C235.473 5.71215 237.6 4.22851 240.468 3.23941C243.336 2.25032 246.403 1.75577 249.667 1.75577C253.326 1.75577 256.788 2.34922 260.052 3.53614C263.415 4.62415 266.086 7.19581 268.064 11.2511L282.9 41.2208C284.384 44.287 285.719 47.2048 286.906 49.9743C288.093 52.6448 289.379 55.7605 290.764 59.3213L291.506 59.1729C291.11 53.8318 290.863 48.4906 290.764 43.1495C290.665 37.8084 290.615 32.4672 290.615 27.1261V3.09105C291.703 2.79432 293.335 2.49759 295.511 2.20086C297.786 1.90413 300.012 1.75577 302.188 1.75577C306.54 1.75577 309.853 2.54704 312.128 4.1296C314.403 5.61324 315.541 8.77836 315.541 13.6249V89.8844Z" fill="black"/>
<path d="M390.451 92.4066C389.363 92.7033 387.632 93 385.258 93.2968C382.983 93.5935 380.708 93.7419 378.433 93.7419C376.158 93.7419 374.131 93.544 372.35 93.1484C370.669 92.8517 369.235 92.2582 368.048 91.368C366.861 90.4778 365.971 89.2415 365.377 87.6589C364.784 86.0763 364.487 83.9992 364.487 81.4276V3.09105C365.575 2.89323 367.306 2.64595 369.68 2.34923C372.054 1.95359 374.329 1.75577 376.505 1.75577C378.78 1.75577 380.758 1.95359 382.439 2.34923C384.22 2.64595 385.703 3.23941 386.89 4.1296C388.077 5.01979 388.967 6.25616 389.561 7.83872C390.154 9.42127 390.451 11.4984 390.451 14.07V92.4066Z" fill="black"/>
<path d="M491.144 89.8844C489.759 91.2691 487.732 92.3077 485.061 93C482.49 93.7913 479.374 94.187 475.714 94.187C472.055 94.187 468.593 93.6429 465.329 92.5549C462.065 91.4669 459.394 88.8458 457.317 84.6916L442.629 54.7219C441.145 51.6557 439.81 48.7874 438.623 46.1168C437.436 43.3473 436.15 40.1822 434.766 36.6215L433.875 36.7698C434.271 42.111 434.469 47.551 434.469 53.0899C434.568 58.6289 434.617 64.0689 434.617 69.41V92.4066C433.529 92.7033 431.848 93 429.573 93.2968C427.397 93.5935 425.221 93.7419 423.045 93.7419C420.869 93.7419 418.94 93.5935 417.259 93.2968C415.577 93 414.192 92.4066 413.104 91.5164C412.016 90.6262 411.176 89.4393 410.582 87.9556C409.989 86.3731 409.692 84.3454 409.692 81.8727V7.69035C411.077 5.71215 413.203 4.22851 416.072 3.23941C418.94 2.25032 422.006 1.75577 425.27 1.75577C428.93 1.75577 432.392 2.34922 435.656 3.53614C439.019 4.62415 441.689 7.19581 443.667 11.2511L458.504 41.2208C459.988 44.287 461.323 47.2048 462.51 49.9743C463.697 52.6448 464.982 55.7605 466.367 59.3213L467.109 59.1729C466.713 53.8318 466.466 48.4906 466.367 43.1495C466.268 37.8084 466.219 32.4672 466.219 27.1261V3.09105C467.307 2.79432 468.939 2.49759 471.115 2.20086C473.39 1.90413 475.615 1.75577 477.791 1.75577C482.143 1.75577 485.457 2.54704 487.732 4.1296C490.007 5.61324 491.144 8.77836 491.144 13.6249V89.8844Z" fill="black"/>
<path d="M2.28766 139.877C1.873 139.225 1.48796 138.337 1.13254 137.211C0.777115 136.086 0.599403 134.901 0.599403 133.657C0.599403 131.347 1.10292 129.688 2.10995 128.681C3.17622 127.674 4.53868 127.171 6.19732 127.171H44.9384C45.3531 127.822 45.7381 128.711 46.0936 129.836C46.449 130.962 46.6267 132.146 46.6267 133.39C46.6267 135.701 46.0935 137.359 45.0273 138.366C44.0202 139.373 42.6874 139.877 41.0288 139.877H31.1658V180.928C30.5142 181.106 29.4775 181.284 28.0558 181.461C26.6934 181.639 25.3309 181.728 23.9685 181.728C22.606 181.728 21.3916 181.609 20.3254 181.373C19.3183 181.195 18.4594 180.839 17.7486 180.306C17.0377 179.773 16.5046 179.033 16.1492 178.085C15.7937 177.137 15.616 175.893 15.616 174.353V139.877H2.28766Z" fill="#008D9C"/>
<path d="M49.141 154.272C49.141 149.651 49.8519 145.564 51.2736 142.009C52.7545 138.455 54.7389 135.493 57.2269 133.124C59.7741 130.695 62.736 128.859 66.1125 127.615C69.5482 126.371 73.2505 125.749 77.2194 125.749C81.1883 125.749 84.861 126.371 88.2376 127.615C91.6733 128.859 94.6648 130.695 97.212 133.124C99.7592 135.493 101.744 138.455 103.165 142.009C104.646 145.564 105.387 149.651 105.387 154.272C105.387 158.892 104.676 163.009 103.254 166.622C101.832 170.177 99.848 173.168 97.3008 175.597C94.8129 177.966 91.851 179.773 88.4153 181.017C84.9795 182.261 81.2476 182.883 77.2194 182.883C73.1913 182.883 69.4594 182.261 66.0236 181.017C62.5879 179.714 59.626 177.848 57.138 175.419C54.6501 172.99 52.6953 169.999 51.2736 166.445C49.8519 162.891 49.141 158.833 49.141 154.272ZM65.1351 154.272C65.1351 159.662 66.2309 163.69 68.4227 166.356C70.6145 169.022 73.5467 170.354 77.2194 170.354C80.9514 170.354 83.9132 169.022 86.105 166.356C88.2968 163.69 89.3927 159.662 89.3927 154.272C89.3927 148.94 88.2968 144.942 86.105 142.276C83.9725 139.61 81.0402 138.278 77.3083 138.278C73.6356 138.278 70.6737 139.61 68.4227 142.276C66.2309 144.882 65.1351 148.881 65.1351 154.272Z" fill="#008D9C"/>
<path d="M147.177 170.177C148.007 170.414 149.073 170.591 150.376 170.71C151.679 170.769 152.923 170.799 154.108 170.799C156.478 170.799 158.432 170.325 159.973 169.377C161.572 168.37 162.372 166.83 162.372 164.757C162.372 162.802 161.72 161.41 160.417 160.58C159.114 159.751 157.129 159.336 154.464 159.336H147.177V170.177ZM147.177 148.496H153.664C156.211 148.496 158.047 148.022 159.173 147.074C160.358 146.126 160.95 144.734 160.95 142.898C160.95 141.299 160.269 140.025 158.906 139.077C157.603 138.129 155.619 137.656 152.953 137.656C152.064 137.656 151.028 137.685 149.843 137.744C148.718 137.804 147.829 137.892 147.177 138.011V148.496ZM152.953 182.705C151.946 182.705 150.761 182.676 149.399 182.617C148.036 182.557 146.615 182.439 145.134 182.261C143.712 182.083 142.29 181.846 140.869 181.55C139.447 181.313 138.144 180.958 136.959 180.484C133.701 179.24 132.072 177.078 132.072 173.998V132.502C132.072 131.258 132.398 130.31 133.049 129.658C133.76 128.948 134.708 128.385 135.893 127.97C137.907 127.259 140.424 126.756 143.445 126.46C146.467 126.104 149.576 125.927 152.775 125.927C160.358 125.927 166.193 127.2 170.28 129.747C174.367 132.295 176.411 136.234 176.411 141.565C176.411 144.231 175.641 146.541 174.101 148.496C172.561 150.392 170.487 151.784 167.881 152.672C170.843 153.501 173.301 155.012 175.256 157.204C177.27 159.396 178.277 162.15 178.277 165.467C178.277 171.332 176.085 175.686 171.702 178.529C167.377 181.313 161.128 182.705 152.953 182.705Z" fill="#008D9C"/>
<path d="M184.42 154.272C184.42 149.651 185.131 145.564 186.553 142.009C188.034 138.455 190.018 135.493 192.506 133.124C195.054 130.695 198.015 128.859 201.392 127.615C204.828 126.371 208.53 125.749 212.499 125.749C216.468 125.749 220.14 126.371 223.517 127.615C226.953 128.859 229.944 130.695 232.491 133.124C235.039 135.493 237.023 138.455 238.445 142.009C239.926 145.564 240.666 149.651 240.666 154.272C240.666 158.892 239.955 163.009 238.534 166.622C237.112 170.177 235.127 173.168 232.58 175.597C230.092 177.966 227.13 179.773 223.695 181.017C220.259 182.261 216.527 182.883 212.499 182.883C208.471 182.883 204.739 182.261 201.303 181.017C197.867 179.714 194.905 177.848 192.417 175.419C189.929 172.99 187.975 169.999 186.553 166.445C185.131 162.891 184.42 158.833 184.42 154.272ZM200.414 154.272C200.414 159.662 201.51 163.69 203.702 166.356C205.894 169.022 208.826 170.354 212.499 170.354C216.231 170.354 219.193 169.022 221.384 166.356C223.576 163.69 224.672 159.662 224.672 154.272C224.672 148.94 223.576 144.942 221.384 142.276C219.252 139.61 216.32 138.278 212.588 138.278C208.915 138.278 205.953 139.61 203.702 142.276C201.51 144.882 200.414 148.881 200.414 154.272Z" fill="#008D9C"/>
<path d="M245.513 139.877C245.098 139.225 244.713 138.337 244.358 137.211C244.002 136.086 243.825 134.901 243.825 133.657C243.825 131.347 244.328 129.688 245.335 128.681C246.401 127.674 247.764 127.171 249.423 127.171H288.164C288.578 127.822 288.963 128.711 289.319 129.836C289.674 130.962 289.852 132.146 289.852 133.39C289.852 135.701 289.319 137.359 288.253 138.366C287.246 139.373 285.913 139.877 284.254 139.877H274.391V180.928C273.739 181.106 272.703 181.284 271.281 181.461C269.919 181.639 268.556 181.728 267.194 181.728C265.831 181.728 264.617 181.609 263.551 181.373C262.544 181.195 261.685 180.839 260.974 180.306C260.263 179.773 259.73 179.033 259.374 178.085C259.019 177.137 258.841 175.893 258.841 174.353V139.877H245.513Z" fill="#008D9C"/>
<path d="M322.488 138.278C317.927 138.278 314.432 139.67 312.003 142.454C309.575 145.238 308.36 149.177 308.36 154.272C308.36 159.425 309.693 163.394 312.359 166.178C315.084 168.962 318.727 170.354 323.288 170.354C325.717 170.354 327.761 170.029 329.419 169.377C331.137 168.725 332.766 167.985 334.306 167.156C335.313 167.985 336.083 168.992 336.616 170.177C337.209 171.302 337.505 172.635 337.505 174.175C337.505 176.604 336.143 178.677 333.418 180.395C330.752 182.054 326.665 182.883 321.156 182.883C317.187 182.883 313.455 182.32 309.96 181.195C306.465 180.069 303.414 178.351 300.808 176.041C298.201 173.672 296.128 170.71 294.588 167.156C293.107 163.542 292.366 159.247 292.366 154.272C292.366 149.651 293.077 145.593 294.499 142.098C295.98 138.544 297.964 135.553 300.452 133.124C302.999 130.695 305.961 128.859 309.338 127.615C312.714 126.371 316.328 125.749 320.178 125.749C325.628 125.749 329.834 126.637 332.796 128.415C335.817 130.192 337.327 132.472 337.327 135.256C337.327 136.797 336.942 138.129 336.172 139.255C335.402 140.38 334.514 141.269 333.507 141.921C331.966 140.914 330.308 140.055 328.531 139.344C326.813 138.633 324.799 138.278 322.488 138.278Z" fill="#008D9C"/>
<path d="M393.954 180.928C393.302 181.106 392.266 181.284 390.844 181.461C389.482 181.639 388.119 181.728 386.757 181.728C385.394 181.728 384.18 181.609 383.114 181.373C382.107 181.195 381.248 180.839 380.537 180.306C379.826 179.773 379.293 179.033 378.937 178.085C378.582 177.137 378.404 175.893 378.404 174.353V160.491H361.344V180.928C360.692 181.106 359.656 181.284 358.234 181.461C356.872 181.639 355.509 181.728 354.147 181.728C352.784 181.728 351.57 181.609 350.504 181.373C349.497 181.195 348.638 180.839 347.927 180.306C347.216 179.773 346.683 179.033 346.327 178.085C345.972 177.137 345.794 175.893 345.794 174.353V127.437C346.446 127.319 347.483 127.171 348.904 126.993C350.326 126.756 351.688 126.637 352.992 126.637C354.354 126.637 355.539 126.756 356.546 126.993C357.612 127.171 358.501 127.526 359.211 128.059C359.922 128.592 360.455 129.333 360.811 130.28C361.166 131.228 361.344 132.472 361.344 134.012V148.229H378.404V127.437C379.056 127.319 380.093 127.171 381.514 126.993C382.936 126.756 384.298 126.637 385.602 126.637C386.964 126.637 388.149 126.756 389.156 126.993C390.222 127.171 391.111 127.526 391.822 128.059C392.532 128.592 393.066 129.333 393.421 130.28C393.776 131.228 393.954 132.472 393.954 134.012V180.928Z" fill="#008D9C"/>
<path d="M416.957 129.037C417.964 128.444 419.474 127.881 421.488 127.348C423.562 126.815 425.635 126.549 427.708 126.549C430.67 126.549 433.276 126.993 435.528 127.881C437.838 128.711 439.319 130.044 439.97 131.88C441.037 134.96 442.192 138.544 443.436 142.631C444.68 146.719 445.924 150.954 447.168 155.338C448.412 159.662 449.626 163.957 450.811 168.222C451.995 172.428 453.032 176.16 453.921 179.418C453.21 180.247 452.144 180.899 450.722 181.373C449.3 181.906 447.612 182.172 445.657 182.172C444.235 182.172 443.021 182.054 442.014 181.817C441.066 181.58 440.266 181.224 439.615 180.751C439.022 180.277 438.519 179.655 438.104 178.885C437.749 178.115 437.423 177.226 437.127 176.219L435.528 170.088H419.445C418.971 171.865 418.497 173.701 418.023 175.597C417.549 177.493 417.075 179.329 416.601 181.106C415.772 181.402 414.883 181.639 413.936 181.817C413.047 182.054 411.951 182.172 410.648 182.172C407.627 182.172 405.376 181.669 403.895 180.662C402.473 179.595 401.762 178.144 401.762 176.308C401.762 175.478 401.881 174.649 402.118 173.82C402.355 172.99 402.621 172.013 402.917 170.888C403.332 169.288 403.895 167.304 404.606 164.934C405.376 162.565 406.205 160.018 407.094 157.293C407.982 154.508 408.93 151.665 409.937 148.762C410.944 145.86 411.892 143.135 412.78 140.588C413.669 137.981 414.469 135.671 415.18 133.657C415.95 131.643 416.542 130.103 416.957 129.037ZM427.619 140.499C426.79 142.987 425.842 145.771 424.776 148.851C423.769 151.872 422.851 154.953 422.021 158.092H433.04C432.21 154.894 431.351 151.784 430.463 148.762C429.633 145.682 428.863 142.928 428.152 140.499H427.619Z" fill="#008D9C"/>
<path d="M455.591 139.877C455.176 139.225 454.791 138.337 454.436 137.211C454.08 136.086 453.903 134.901 453.903 133.657C453.903 131.347 454.406 129.688 455.413 128.681C456.479 127.674 457.842 127.171 459.5 127.171H498.242C498.656 127.822 499.041 128.711 499.397 129.836C499.752 130.962 499.93 132.146 499.93 133.39C499.93 135.701 499.397 137.359 498.33 138.366C497.323 139.373 495.991 139.877 494.332 139.877H484.469V180.928C483.817 181.106 482.781 181.284 481.359 181.461C479.997 181.639 478.634 181.728 477.272 181.728C475.909 181.728 474.695 181.609 473.629 181.373C472.622 181.195 471.763 180.839 471.052 180.306C470.341 179.773 469.808 179.033 469.452 178.085C469.097 177.137 468.919 175.893 468.919 174.353V139.877H455.591Z" fill="#008D9C"/>
</svg>
